# xmcd
#
# Track frame offsets:
#	150
#	13639
#	30555
#	48159
#	62792
#	79655
#	94503
#	108945
#	126861
#	153077
#	169905
#
# Disc length: 2453 seconds
#
# Revision: 0
# Processed by: cddbd v1.5.2PL0 Copyright (c) Steve Scherf et al.
# Submitted via: EasyCDDAExtractor 15.2.5.1
#
DISCID=7a09930b
DTITLE=West Coast Revival  - West Coast Revival (1977) (LP Miniature) (Big Pin
DTITLE=k0087)
DYEAR=1977
DGENRE=Soul
TTITLE0=It`s Gonna Be Hard
TTITLE1=So Far Away
TTITLE2=Feelin` Alright
TTITLE3=Love Of My Life
TTITLE4=Talkin Bout Love
TTITLE5=The Family Was Right
TTITLE6=Free
TTITLE7=My Mind Is At Ease
TTITLE8=Familiar Places
TTITLE9=Beautiful Girl (Bonus Track)
TTITLE10=Stop, Think, Get It Together (Bonus Track)
EXTD=
EXTT0=
EXTT1=
EXTT2=
EXTT3=
EXTT4=
EXTT5=
EXTT6=
EXTT7=
EXTT8=
EXTT9=
EXTT10=
PLAYORDER=
